<svg width="23" height="22" viewBox="0 0 23 22" fill="none" xmlns="http://www.w3.org/2000/svg">
<path fill-rule="evenodd" clip-rule="evenodd" d="M20.6713 2.94539H5.23221L3.91306 0.580887C3.76499 0.315483 3.48488 0.151001 3.18097 0.151001H1.50433C1.04134 0.151001 0.666016 0.526329 0.666016 0.989319C0.666016 1.45231 1.04134 1.82764 1.50433 1.82764H2.68871L3.99055 4.16112L6.99293 10.8042L6.99601 10.811L7.26045 11.3961L4.24604 14.6115C4.0293 14.8427 3.96145 15.1763 4.07069 15.4738C4.17993 15.7713 4.44758 15.9818 4.76244 16.0177L7.51004 16.3317C10.9468 16.7245 14.4171 16.7245 17.8538 16.3317L20.6014 16.0177C21.0614 15.9652 21.3917 15.5496 21.3391 15.0896C21.2866 14.6297 20.871 14.2994 20.411 14.3519L17.6634 14.666C14.3532 15.0443 11.0106 15.0443 7.70041 14.666L6.61002 14.5413L8.82248 12.1814C8.84388 12.1585 8.86376 12.1348 8.88211 12.1104L9.72358 12.2199C10.9027 12.3733 12.0947 12.4034 13.28 12.3096C16.0448 12.091 18.6072 10.7754 20.3961 8.6561L21.0422 7.89063C21.0639 7.86493 21.084 7.83794 21.1025 7.80981L22.3067 5.97462C23.1603 4.67381 22.2272 2.94539 20.6713 2.94539ZM8.94443 10.4277C8.75954 10.4037 8.60011 10.2862 8.52227 10.117L8.52077 10.1137L6.03878 4.62203H20.6713C20.8936 4.62203 21.0269 4.86895 20.905 5.05478L19.7284 6.84774L19.1149 7.57461C17.6148 9.35169 15.4662 10.4548 13.1478 10.6382C12.0786 10.7228 11.0035 10.6956 9.93991 10.5572L8.94443 10.4277Z" fill="#90C8EB"/>
<path d="M6.53424 17.7557C5.60826 17.7557 4.85761 18.5063 4.85761 19.4323C4.85761 20.3583 5.60826 21.1089 6.53424 21.1089C7.46022 21.1089 8.21088 20.3583 8.21088 19.4323C8.21088 18.5063 7.46022 17.7557 6.53424 17.7557Z" fill="#90C8EB"/>
<path d="M17.1529 19.4323C17.1529 18.5063 17.9036 17.7557 18.8296 17.7557C19.7556 17.7557 20.5062 18.5063 20.5062 19.4323C20.5062 20.3583 19.7556 21.1089 18.8296 21.1089C17.9036 21.1089 17.1529 20.3583 17.1529 19.4323Z" fill="#90C8EB"/>
</svg>
