<svg width="32" height="32" viewBox="0 0 32 32" fill="none" xmlns="http://www.w3.org/2000/svg">
<path d="M28 10.6674L25.3333 13.3341M25.3333 13.3341L23.3333 8.40072C23.1447 7.89584 22.8075 7.45996 22.3663 7.15053C21.925 6.8411 21.4003 6.67265 20.8613 6.66739H11.2C10.6567 6.65491 10.1225 6.80874 9.66903 7.10828C9.21555 7.40781 8.86442 7.83876 8.66267 8.34339L6.66667 13.3341M25.3333 13.3341H6.66667M25.3333 13.3341C26.8061 13.3341 28 14.5279 28 16.0007V21.334C28 22.8068 26.8061 24.0007 25.3333 24.0007M6.66667 13.3341L4 10.6674M6.66667 13.3341C5.19391 13.3341 4 14.5279 4 16.0007V21.334C4 22.8068 5.19391 24.0007 6.66667 24.0007M9.33333 18.6673H9.34667M22.6667 18.6673H22.68M25.3333 24.0007H6.66667M25.3333 24.0007V26.6673M6.66667 24.0007V26.6673" stroke="#90C8EB" stroke-width="2" stroke-linecap="round" stroke-linejoin="round"/>
</svg>
