<svg width="10" height="10" viewBox="0 0 10 10" fill="none" xmlns="http://www.w3.org/2000/svg">
<path d="M1.14083 0.195736C0.879852 -0.0652454 0.456717 -0.0652454 0.195736 0.195736C-0.0652454 0.456717 -0.0652454 0.879852 0.195736 1.14083L4.0549 5L0.195776 8.85913C-0.0652052 9.12011 -0.0652055 9.54324 0.195776 9.80422C0.456757 10.0652 0.879892 10.0652 1.14087 9.80422L5 5.9451L8.85913 9.80422C9.12011 10.0652 9.54324 10.0652 9.80422 9.80422C10.0652 9.54324 10.0652 9.12011 9.80422 8.85913L5.9451 5L9.80426 1.14083C10.0652 0.879852 10.0652 0.456717 9.80426 0.195736C9.54328 -0.0652454 9.12015 -0.0652454 8.85917 0.195736L5 4.0549L1.14083 0.195736Z" fill="#90C8EB"/>
</svg>
