<svg width="22" height="22" viewBox="0 0 22 22" fill="none" xmlns="http://www.w3.org/2000/svg">
<path fill-rule="evenodd" clip-rule="evenodd" d="M11.0113 5.10752L10.0149 4.11111C8.04597 2.14221 4.85377 2.14221 2.88487 4.11111C0.91598 6.08 0.91598 9.27221 2.88487 11.2411L10.9871 19.3434L10.9888 19.3417L11.0129 19.3659L19.1152 11.2636C21.0841 9.2947 21.0841 6.10249 19.1152 4.1336C17.1463 2.16471 13.9541 2.16471 11.9852 4.1336L11.0113 5.10752ZM10.9888 16.749L15.5137 12.2241L16.8436 10.9398L16.8449 10.9412L17.8188 9.96723C19.0718 8.7143 19.0718 6.68289 17.8188 5.42996C16.5659 4.17703 14.5345 4.17703 13.2816 5.42996L11.0123 7.69926L11.0056 7.69262L11.0046 7.69361L8.7185 5.40747C7.46557 4.15454 5.43417 4.15454 4.18124 5.40747C2.9283 6.6604 2.9283 8.69181 4.18124 9.94474L6.50904 12.2725L6.51069 12.2709L10.9888 16.749Z" fill="#90C8EB"/>
</svg>
