<svg width="35" height="36" viewBox="0 0 35 36" fill="none" xmlns="http://www.w3.org/2000/svg">
<path d="M17.5103 3.15321C22.1888 3.15321 22.7428 3.17373 24.5828 3.25581C26.2927 3.33105 27.2161 3.61833 27.8317 3.85773C28.6457 4.17237 29.2339 4.5554 29.8427 5.16416C30.4583 5.77975 30.8345 6.36115 31.1491 7.1751C31.3885 7.7907 31.6758 8.72093 31.751 10.4241C31.8331 12.2709 31.8536 12.8249 31.8536 17.4966C31.8536 22.1751 31.8331 22.7291 31.751 24.5691C31.6758 26.2791 31.3885 27.2025 31.1491 27.8181C30.8345 28.632 30.4514 29.2202 29.8427 29.829C29.2271 30.4446 28.6457 30.8208 27.8317 31.1354C27.2161 31.3748 26.2859 31.6621 24.5828 31.7373C22.736 31.8194 22.1819 31.8399 17.5103 31.8399C12.8317 31.8399 12.2777 31.8194 10.4378 31.7373C8.72777 31.6621 7.80438 31.3748 7.18878 31.1354C6.37483 30.8208 5.78659 30.4378 5.17784 29.829C4.56224 29.2134 4.18605 28.632 3.87141 27.8181C3.63201 27.2025 3.34473 26.2722 3.26949 24.5691C3.18741 22.7223 3.16689 22.1683 3.16689 17.4966C3.16689 12.8181 3.18741 12.264 3.26949 10.4241C3.34473 8.71409 3.63201 7.7907 3.87141 7.1751C4.18605 6.36115 4.56908 5.77291 5.17784 5.16416C5.79343 4.54856 6.37483 4.17237 7.18878 3.85773C7.80438 3.61833 8.73461 3.33105 10.4378 3.25581C12.2777 3.17373 12.8317 3.15321 17.5103 3.15321ZM17.5103 0C12.7565 0 12.1614 0.0205198 10.2941 0.102599C8.43365 0.184679 7.15458 0.485636 6.04651 0.916553C4.89056 1.36799 3.91245 1.96306 2.94118 2.94118C1.96306 3.91245 1.36799 4.89056 0.916553 6.03967C0.485636 7.15458 0.184679 8.42681 0.102599 10.2873C0.0205198 12.1614 0 12.7565 0 17.5103C0 22.264 0.0205198 22.8591 0.102599 24.7264C0.184679 26.5869 0.485636 27.8659 0.916553 28.974C1.36799 30.13 1.96306 31.1081 2.94118 32.0793C3.91245 33.0506 4.89056 33.6525 6.03967 34.0971C7.15458 34.528 8.42681 34.829 10.2873 34.9111C12.1546 34.9932 12.7497 35.0137 17.5034 35.0137C22.2572 35.0137 22.8523 34.9932 24.7196 34.9111C26.58 34.829 27.8591 34.528 28.9672 34.0971C30.1163 33.6525 31.0944 33.0506 32.0657 32.0793C33.0369 31.1081 33.6388 30.13 34.0834 28.9808C34.5144 27.8659 34.8153 26.5937 34.8974 24.7332C34.9795 22.8659 35 22.2709 35 17.5171C35 12.7633 34.9795 12.1683 34.8974 10.301C34.8153 8.44049 34.5144 7.16142 34.0834 6.05335C33.6525 4.89056 33.0575 3.91245 32.0793 2.94118C31.1081 1.9699 30.13 1.36799 28.9808 0.923393C27.8659 0.492476 26.5937 0.191518 24.7332 0.109439C22.8591 0.0205198 22.264 0 17.5103 0Z" fill="white"/>
<path d="M17.5103 8.51562C12.5445 8.51562 8.51575 12.5444 8.51575 17.5102C8.51575 22.476 12.5445 26.5047 17.5103 26.5047C22.4761 26.5047 26.5048 22.476 26.5048 17.5102C26.5048 12.5444 22.4761 8.51562 17.5103 8.51562ZM17.5103 23.3446C14.2887 23.3446 11.6758 20.7318 11.6758 17.5102C11.6758 14.2885 14.2887 11.6757 17.5103 11.6757C20.7319 11.6757 23.3447 14.2885 23.3447 17.5102C23.3447 20.7318 20.7319 23.3446 17.5103 23.3446Z" fill="white"/>
<path d="M28.9603 8.15992C28.9603 9.32272 28.0164 10.2598 26.8605 10.2598C25.6977 10.2598 24.7606 9.31588 24.7606 8.15992C24.7606 6.99713 25.7045 6.06006 26.8605 6.06006C28.0164 6.06006 28.9603 7.00397 28.9603 8.15992Z" fill="white"/>
</svg>
