<svg width="91" height="14" viewBox="0 0 91 14" fill="none" xmlns="http://www.w3.org/2000/svg">
<path d="M12.9229 0.706591V13.1299H10.6512V2.65883H5.75287L5.64638 5.76467C5.58722 7.50394 5.44524 8.91784 5.22044 10.0064C4.99564 11.083 4.63477 11.9054 4.13783 12.4733C3.6409 13.0294 2.95466 13.3074 2.07911 13.3074C1.77148 13.3074 1.35145 13.2483 0.819024 13.1299L0.978753 11.1245C1.13257 11.1718 1.31004 11.1955 1.51118 11.1955C2.23292 11.1955 2.74169 10.7695 3.03748 9.91762C3.34511 9.0539 3.53441 7.69916 3.6054 5.85341L3.78288 0.706591H12.9229ZM21.9728 13.3074C20.7068 13.3074 19.5651 13.0353 18.5475 12.491C17.53 11.9349 16.7314 11.1718 16.1516 10.2016C15.5718 9.21955 15.282 8.12511 15.282 6.91827C15.282 5.71143 15.5718 4.6229 16.1516 3.6527C16.7314 2.67066 17.53 1.90751 18.5475 1.36325C19.5651 0.807161 20.7068 0.529114 21.9728 0.529114C23.2388 0.529114 24.3806 0.807161 25.3981 1.36325C26.4157 1.90751 27.2143 2.66475 27.7941 3.63495C28.3738 4.60516 28.6637 5.6996 28.6637 6.91827C28.6637 8.13694 28.3738 9.23138 27.7941 10.2016C27.2143 11.1718 26.4157 11.9349 25.3981 12.491C24.3806 13.0353 23.2388 13.3074 21.9728 13.3074ZM21.9728 11.2842C22.8011 11.2842 23.5465 11.1008 24.209 10.734C24.8716 10.3554 25.3922 9.8348 25.7708 9.17222C26.1494 8.49781 26.3388 7.74649 26.3388 6.91827C26.3388 6.09004 26.1494 5.34464 25.7708 4.68206C25.3922 4.00765 24.8716 3.48706 24.209 3.12027C23.5465 2.74165 22.8011 2.55235 21.9728 2.55235C21.1446 2.55235 20.3992 2.74165 19.7366 3.12027C19.074 3.48706 18.5535 4.00765 18.1748 4.68206C17.7962 5.34464 17.6069 6.09004 17.6069 6.91827C17.6069 7.74649 17.7962 8.49781 18.1748 9.17222C18.5535 9.8348 19.074 10.3554 19.7366 10.734C20.3992 11.1008 21.1446 11.2842 21.9728 11.2842ZM39.4494 2.65883H33.291L33.3087 13.1299H31.037V0.706591H39.4672L39.4494 2.65883ZM45.5348 13.3074C44.2688 13.3074 43.127 13.0353 42.1095 12.491C41.0919 11.9349 40.2933 11.1718 39.7135 10.2016C39.1338 9.21955 38.8439 8.12511 38.8439 6.91827C38.8439 5.71143 39.1338 4.6229 39.7135 3.6527C40.2933 2.67066 41.0919 1.90751 42.1095 1.36325C43.127 0.807161 44.2688 0.529114 45.5348 0.529114C46.8008 0.529114 47.9425 0.807161 48.9601 1.36325C49.9776 1.90751 50.7762 2.66475 51.356 3.63495C51.9358 4.60516 52.2256 5.6996 52.2256 6.91827C52.2256 8.13694 51.9358 9.23138 51.356 10.2016C50.7762 11.1718 49.9776 11.9349 48.9601 12.491C47.9425 13.0353 46.8008 13.3074 45.5348 13.3074ZM45.5348 11.2842C46.363 11.2842 47.1084 11.1008 47.771 10.734C48.4336 10.3554 48.9542 9.8348 49.3328 9.17222C49.7114 8.49781 49.9007 7.74649 49.9007 6.91827C49.9007 6.09004 49.7114 5.34464 49.3328 4.68206C48.9542 4.00765 48.4336 3.48706 47.771 3.12027C47.1084 2.74165 46.363 2.55235 45.5348 2.55235C44.7065 2.55235 43.9611 2.74165 43.2986 3.12027C42.636 3.48706 42.1154 4.00765 41.7368 4.68206C41.3582 5.34464 41.1689 6.09004 41.1689 6.91827C41.1689 7.74649 41.3582 8.49781 41.7368 9.17222C42.1154 9.8348 42.636 10.3554 43.2986 10.734C43.9611 11.1008 44.7065 11.2842 45.5348 11.2842ZM63.4237 2.65883H59.3063V13.1299H57.0168V2.65883H52.9171V0.706591H63.4237V2.65883ZM65.236 0.706591H67.5077V9.52717L74.1809 0.706591H76.3283V13.1299H74.0566V4.32711L67.3835 13.1299H65.236V0.706591ZM90.6199 0.706591V13.1299H88.3482V2.65883H81.9058V13.1299H79.6341V0.706591H90.6199Z" fill="#90C8EB"/>
</svg>
